<?xml version="1.0" encoding="UTF-8" standalone="no"?><svg xmlns="http://www.w3.org/2000/svg" fill="#000000" height="348.37pt" version="1.1" viewBox="0 0 484.7 348.37" width="484.7pt">
 <g fill="#000000" id="change1_1">
  <path d="m300.64 304.71h-76.86-39.63c-12.79 0-25.72 0.7-38.49-0.3 0.67 4.91 1.33 9.82 2 14.73 0.03-0.01 0.05-0.02 0.08-0.03 6.59-2.2 7.72-12.83 0-14.46-6.85-1.45-12.77-2.75-18.42-7.19-2.95-2.32-5.88-5.25-7.79-8.23-1.78-2.76-3.1-7.11-5.49-9.41 1.38 2.1 1.6 2.07 0.66-0.09-0.34-1.01-0.63-2.03-0.89-3.07-0.61-2.27-0.77-4.56-0.87-6.9-0.28-6.15-0.05-12.35-0.04-18.51 0.02-13.22 0-26.45 0-39.68v-155.17c-4.27 1.768-8.54 3.534-12.8 5.303 11.47 11.477 22.95 22.953 34.43 34.43 8.62 8.627 17.55 21.247 31.42 18.357 10.23-2.13 16.86-10.76 18.19-20.752 0.66-5.054-1.69-10.351-4.76-14.199-4.96-6.215-11.35-11.605-16.98-17.234-11.64-11.645-23.29-23.285-34.93-34.93l-16.77-16.77c-5.18-5.187-10.02-9.7183-17.669-10.394-5.847-0.51959-11.972 1.3085-16.363 5.2851-6.172 5.6019-11.883 11.793-17.777 17.688-11.645 11.64-23.289 23.285-34.93 34.929l-16.77 16.77c-4.6246 4.625-8.3902 9.14-9.0855 15.875-1.1055 10.692 6.5898 19.802 16.2 23.262 13.686 4.93 23.573-8.12 31.96-16.508 11.937-11.938 23.871-23.871 35.808-35.809-4.269-1.765-8.539-3.535-12.804-5.305v198.15c0 13.56-0.024 26.58 4.433 39.56 3.992 11.62 10.719 22.14 19.297 30.91 9.06 9.26 20.59 15.81 32.93 19.55 14.42 4.37 29.92 3.77 44.8 3.77h127.92c12.37 0 21.05-9.82 21.34-21.81 0.31-12.27-9.45-21.46-21.35-21.82-9.67-0.29-9.64 14.71 0 15 5.88 0.18 7.18 5.13 5.88 9.69-0.49 1.74-1.76 3.08-3.93 3.73-2.36 0.69-5.42 0.21-7.94 0.21h-13.99-99.93c-15.09 0-30.62 1.01-45.43-2.34-12.34-2.8-23.06-9.5-31.67-18.65-7.985-8.48-13.181-19.23-15.853-30.49-3.25-13.68-1.507-28.87-1.507-42.82v-182.64c0-6.541-8.176-9.931-12.805-5.302-11.477 11.476-22.953 22.953-34.43 34.429-4.5 4.5-9.125 10.891-14.676 14.035-2.574 1.458-5.574-0.515-7.379-2.324-1.687-1.683-2.652-4.437-1.617-6.672 1.196-2.586 3.864-4.507 5.832-6.476 3.262-3.262 6.52-6.52 9.782-9.781 11.644-11.645 23.289-23.289 34.933-34.93 5.59-5.59 11.176-11.18 16.766-16.77 3.594-3.593 7.687-9.636 13.523-6.82 2.828 1.363 5.111 4.633 7.291 6.82 2.8 2.793 5.59 5.59 8.39 8.383 6.05 6.055 12.11 12.113 18.16 18.164 11.65 11.645 23.29 23.289 34.94 34.934 2.63 2.629 6.93 5.57 6.09 9.594-0.64 3.086-3.21 5.312-6.14 6.144-2.72 0.772-4.89-1.398-6.78-3.285-5.05-5.051-10.1-10.098-15.15-15.148-10.1-10.098-20.2-20.2-30.3-30.297-4.63-4.629-12.802-1.243-12.802 5.3v163.11c0 13.08 0.032 26.17-0.023 39.25-0.023 5.85-0.164 11.71 0.665 17.51 0.37 2.55 0.93 4.99 1.69 7.45 0.51 1.66 1.1 3.65 1.98 5.14 0.39 0.51 0.78 1.01 1.17 1.52-0.95-1.26-1.14-1.37-0.56-0.32 7.67 16.23 21.79 25.44 38.93 29.05v-14.46c-0.02 0.01-0.05 0.02-0.08 0.03-8.22 2.75-6.44 14.07 1.99 14.73 12.12 0.95 24.37 0.3 36.51 0.3h39.63 78.84c9.68 0 9.68-15 0-15" fill="inherit"/>
  <path d="m447.54 239.84c-15.61 15.61-31.22 31.21-46.83 46.82 4.27 1.77 8.54 3.54 12.81 5.3v-198.15c0-13.556 0.02-26.572-4.44-39.548-3.99-11.625-10.72-22.153-19.29-30.914-9.07-9.262-20.59-15.809-32.93-19.551-14.42-4.3673-29.92-3.7736-44.8-3.7736-33.31 0.000038-66.62 0.000038-99.94 0.000038h-23.98c-5.6 0-10.83 0.23047-15.71 3.3008-7.66 4.8203-10.71 14.364-9.18 22.977 1.5 8.539 8.2 15.605 16.85 16.965 7.08 1.109 14.63 0.39 21.78 0.39h25.62c32.77 0 65.55 0.114 98.32-0.14 4.44-0.036 8.87 0.093 13.29 0.441-0.66-4.91-1.33-9.824-1.99-14.734-0.03 0.011-0.05 0.019-0.08 0.031-6.18 2.512-8.04 12.777 0 14.465 6.85 1.433 12.78 2.746 18.42 7.183 2.9 2.282 6.1 5.586 7.8 8.231 1.83 2.855 3.12 6.953 5.49 9.406-1.39-2.094-1.61-2.059-0.66 0.094 0.34 1.012 0.63 2.035 0.89 3.066 0.61 2.281 0.76 4.563 0.87 6.91 0.28 6.149 0.04 12.344 0.04 18.5-0.02 13.231 0 26.451 0 39.681v155.18c4.26-1.77 8.53-3.54 12.8-5.31-11.48-11.47-22.96-22.95-34.43-34.43-8.63-8.62-17.56-21.25-31.43-18.35-10.22 2.12-16.86 10.76-18.18 20.75-0.67 5.06 1.68 10.35 4.75 14.19 4.97 6.22 11.36 11.61 16.98 17.24 11.65 11.65 23.29 23.29 34.94 34.93 5.58 5.59 11.17 11.18 16.76 16.77 5.19 5.19 10.03 9.72 17.68 10.4 5.84 0.52 11.97-1.31 16.36-5.29 6.17-5.6 11.88-11.79 17.77-17.68l34.94-34.94 11.18-11.18c3.75-3.75 8.17-7.34 11.16-11.76 4.17-6.15 4.57-13.56 1.62-20.28-6.24-14.24-24.09-17.57-35.25-7.19-7.1 6.6 3.53 17.18 10.6 10.61 4.98-4.63 11.78 0.15 11.64 6.16-0.03 1.3-1.17 2.59-2 3.48-2.68 2.88-5.59 5.59-8.38 8.38-6.06 6.05-12.11 12.11-18.17 18.16-11.64 11.65-23.28 23.29-34.93 34.94l-8.38 8.38c-1.66 1.66-3.11 3.1-5.57 3.32-2.08 0.19-3.94-0.54-5.47-1.92-3.4-3.09-6.53-6.54-9.78-9.78-11.64-11.65-23.29-23.29-34.93-34.94-5.59-5.59-11.18-11.17-16.77-16.76-2.79-2.8-5.59-5.59-8.38-8.39-1.32-1.31-3.2-2.86-3.4-4.87-0.64-6.17 6.91-10.56 11.64-6.16 11.86 11.02 22.98 22.98 34.43 34.43l12.39 12.39c4.63 4.63 12.81 1.24 12.81-5.3v-163.11c0-13.09-0.03-26.17 0.02-39.255 0.03-5.847 0.17-11.71-0.66-17.511-0.37-2.547-0.94-4.989-1.7-7.449-0.5-1.653-1.09-3.641-1.97-5.137-0.39-0.508-0.78-1.012-1.17-1.52 0.95 1.254 1.13 1.356 0.56 0.309-7.67-16.207-21.8-25.453-38.94-29.043v14.465c0.02-0.012 0.05-0.02 0.08-0.031 7.8-3.168 6.77-14.043-2-14.731-16.01-1.258-32.33-0.301-48.38-0.301h-49.43-49.28c-2.82 0-6.22 0.414-8.9-0.008-1.21-0.187-2.58-0.82-2.92-1.097-2.08-1.746-2.46-3.571-2.39-6.535 0.04-1.606 1.15-3.977 2.19-4.739 3.69-2.691 11.28-1.254 16.13-1.254h49.97 49.97c15.4 0 31.33-1.117 46.63 1.039 21.35 3.008 38.73 15.836 48.7 34.79 4.52 8.574 6.8 18.289 7.1 27.933 0.44 14.031 0.02 28.145 0.02 42.185v170.99c0 6.55 8.17 9.94 12.8 5.31l46.82-46.82c6.85-6.85-3.76-17.45-10.6-10.61" fill="inherit"/>
 </g>
</svg>